<?xml version="1.0" encoding="utf-8"?>
<!-- Generator: Adobe Illustrator 16.0.4, SVG Export Plug-In . SVG Version: 6.00 Build 0)  -->
<!DOCTYPE svg PUBLIC "-//W3C//DTD SVG 1.1//EN" "http://www.w3.org/Graphics/SVG/1.1/DTD/svg11.dtd">
<svg version="1.1" id="Layer_1" xmlns="http://www.w3.org/2000/svg" xmlns:xlink="http://www.w3.org/1999/xlink" x="0px" y="0px"
	 width="395.797px" height="255.303px" viewBox="0 0 395.797 255.303" enable-background="new 0 0 395.797 255.303"
	 xml:space="preserve">
<path fill="#DDB725" d="M93.566,65.941C115.322,26.629,157.202,0.002,205.312,0h0.021c48.106,0.008,89.976,26.635,111.729,65.941
	h-8.031c-5.076-8.501-11.114-16.499-18.296-23.683c-22.811-22.817-53.14-35.385-85.402-35.39h-0.02
	c-44.062,0.001-82.674,23.733-103.772,59.073H93.566z M307.942,191.232c-21.333,34.306-59.357,57.204-102.649,57.204
	c-43.278-0.008-81.29-22.907-102.616-57.208c-2.676,0.001-5.396,0.002-8.038,0.003c22.035,38.274,63.317,64.065,110.653,64.072
	h0.021c47.337,0,88.63-25.792,110.671-64.071H307.942z M118.075,167.927c-2.189,2.188-2.189,5.738,0,7.927
	c2.189,2.189,5.738,2.189,7.927,0c2.189-2.188,2.189-5.738,0-7.927C123.813,165.738,120.264,165.738,118.075,167.927
	 M188.98,167.905c-2.189,2.189-2.189,5.738,0,7.928c2.189,2.188,5.738,2.188,7.926,0c2.19-2.189,2.19-5.738,0-7.928
	C194.718,165.716,191.169,165.716,188.98,167.905 M241.36,167.905c-2.189,2.189-2.189,5.738,0,7.928
	c2.188,2.188,5.738,2.188,7.927,0c2.189-2.189,2.189-5.738,0-7.928C247.099,165.716,243.549,165.716,241.36,167.905
	 M331.021,167.905c-2.19,2.189-2.19,5.738,0,7.928c2.188,2.188,5.736,2.188,7.925,0c2.189-2.189,2.189-5.738,0-7.928
	C336.758,165.716,333.209,165.716,331.021,167.905 M74.413,127.403l-4.377,16.646 M128.971,107.05
	c-2.342,8.691-7.319,15.308-15.879,20.237c7.116,3.893,8.36,14.271,6.176,22.704c-5.145,19.332-21.573,27.505-39.213,27.505H61.243
	l25.719-97.82h18.94c7.523,0,13.982,0.26,18.901,5.319C129.964,90.184,131.127,98.875,128.971,107.05 M91.805,134.813l-6.934,26.466
	c7.614,0.39,13.66-5.319,15.819-13.493C102.791,140.132,99.486,134.554,91.805,134.813 M102.122,95.892l-6.401,23.871
	c7.266,0,12.972-4.93,14.917-12.325C112.425,100.303,109.557,95.502,102.122,95.892 M159.665,79.675h38.916l-4.761,18.164h-19.588
	l-5.611,21.276h17.255l-4.764,18.163h-17.253l-5.82,22.056h19.848l-4.765,18.162h-39.177L159.665,79.675z M265.887,97.839h-15.309
	l-20.955,79.656h-19.329l20.956-79.656h-15.178l4.764-18.164h49.815L265.887,97.839z M326.056,79.675l-2.239,97.82h-20.627
	l0.695-16.476h-19.589l-7.83,16.476h-19.197l48.42-97.82H326.056z M308.749,104.844h-0.26l-5.963,14.789l-11.042,26.077h13.621
	l1.962-26.077L308.749,104.844z M59.533,129.976l3.47-13.197h-41.96c-3.64,0-21.043,5-21.043,6.598
	c0,1.424,17.403,6.599,21.043,6.599H59.533z M11.9,98.789c0-1.596,17.403-6.598,21.043-6.598h36.523l-3.469,13.198H32.943
	C29.303,105.389,11.9,100.214,11.9,98.789 M53.069,154.564H32.943c-3.64,0-21.043-5.175-21.043-6.6
	c0-1.597,17.403-6.599,21.043-6.599h23.596L53.069,154.564z M339.506,92.191h23.349c3.64,0,21.044,5.002,21.044,6.598
	c0,1.425-17.404,6.6-21.044,6.6h-23.65L339.506,92.191z M383.898,147.964c0,1.425-17.404,6.6-21.044,6.6h-24.735l0.263-13.198
	h24.473C366.494,141.366,383.898,146.368,383.898,147.964 M395.797,123.377c0,1.424-17.403,6.599-21.044,6.599h-36.109l0.301-13.197
	h35.809C378.394,116.779,395.797,121.779,395.797,123.377"/>
</svg>
